<svg id="Capa_1" enable-background="new 0 0 512 512" height="512" viewBox="0 0 512 512" width="512" xmlns="http://www.w3.org/2000/svg"><g><g><path d="m352.748 92.486h-43.688v3.514h-24.707v-3.514h-121.202v6.843h-24.707v-6.843h-50.269c-5.117 0-9.265 4.148-9.265 9.265v51.799c0 5.117 4.148 9.265 9.265 9.265h50.269v-7.146h24.707v7.146h121.202v-7.815h24.707v7.816h43.688c5.117 0 9.265-4.148 9.265-9.265v-51.799c0-5.118-4.148-9.266-9.265-9.266z" fill="#0ab69f"/><path d="m355.717 38.954h-46.657v5.046h-24.707v-5.046h-87.765c-3.477 0-6.296 2.819-6.296 6.296v40.941c0 3.477 2.819 6.296 6.296 6.296h87.765v-4.348h24.707v4.348h46.657c3.477 0 6.296-2.819 6.296-6.296v-40.941c0-3.477-2.819-6.296-6.296-6.296z" fill="#eb5569"/><path d="m487.173 413.37v-97.401c0-15.842-11.991-29.113-27.752-30.715l-66.551-6.763c-4.148-22.26-11.006-58.411-17.438-89.796-3.087-15.063-16.334-25.879-31.71-25.879h-239.601c-22.103 0-40.02 17.918-40.02 40.02v210.534z" fill="#d77f4a"/><path d="m459.422 285.254-66.551-6.763c-4.148-22.26-11.006-58.411-17.438-89.796-3.087-15.063-16.334-25.879-31.71-25.879h-239.602c-12.247 0-23.202 5.507-30.543 14.173h238.965c15.376 0 28.623 10.816 31.71 25.879 5.957 29.072 12.281 62.232 16.478 84.654.571 3.052 3.083 5.358 6.172 5.672l61.34 6.233c15.761 1.602 27.752 14.873 27.752 30.715v83.228h31.181v-97.401c-.003-15.842-11.993-29.113-27.754-30.715z" fill="#c86d36"/><path d="m50.1 363.614h-28.6c-7.732 0-14-6.268-14-14v-101.39c0-7.732 6.268-14 14-14h28.6c7.732 0 14 6.268 14 14v101.391c0 7.731-6.268 13.999-14 13.999z" fill="#5a5a5a"/><ellipse cx="141.221" cy="50.107" fill="#528fd8" rx="49.071" ry="42.38"/><path d="m284.353 38.954h24.707v123.862h-24.707z" fill="#cecece"/><path d="m138.444 92.486h24.707v70.33h-24.707z" fill="#cecece"/><path d="m352.748 92.486h-31.181c5.117 0 9.265 4.148 9.265 9.265v51.799c0 5.117-4.148 9.265-9.265 9.265h31.181c5.117 0 9.265-4.148 9.265-9.265v-51.799c0-5.117-4.148-9.265-9.265-9.265z" fill="#01998d"/><path d="m355.717 38.954h-31.181c3.477 0 6.296 2.819 6.296 6.296v40.941c0 3.477-2.819 6.296-6.296 6.296h31.181c3.477 0 6.296-2.819 6.296-6.296v-40.941c0-3.477-2.819-6.296-6.296-6.296z" fill="#e53950"/><path d="m269.861 280.63h73.365c4.314 0 7.558-4.425 6.735-9.187l-12.394-71.719c-.627-3.626-3.45-6.243-6.735-6.243h-60.971c-3.789 0-6.861 3.454-6.861 7.715v71.719c0 4.26 3.072 7.715 6.861 7.715z" fill="#b2caec"/><path d="m229.899 193.481h-124.635c-3.789 0-6.861 3.454-6.861 7.715v71.719c0 4.261 3.072 7.715 6.861 7.715h124.635c3.789 0 6.861-3.454 6.861-7.715v-71.719c0-4.261-3.072-7.715-6.861-7.715z" fill="#b2caec"/><path d="m349.96 271.443-12.394-71.719c-.627-3.626-3.45-6.243-6.735-6.243h-28.346c3.284 0 6.108 2.618 6.735 6.243l12.394 71.719c.823 4.762-2.42 9.187-6.735 9.187h28.346c4.315 0 7.559-4.425 6.735-9.187z" fill="#82aee3"/><path d="m229.899 193.481h-28.346c3.789 0 6.861 3.454 6.861 7.715v71.719c0 4.261-3.072 7.715-6.861 7.715h28.346c3.789 0 6.861-3.454 6.861-7.715v-71.719c0-4.261-3.072-7.715-6.861-7.715z" fill="#82aee3"/><path d="m50.1 234.224h-25.511c7.732 0 14 6.268 14 14v101.391c0 7.732-6.268 14-14 14h25.511c7.732 0 14-6.268 14-14v-101.391c0-7.732-6.268-14-14-14z" fill="#444"/><path d="m489.5 439.097h-427.551c-8.284 0-15-6.716-15-15v-21.455c0-8.284 6.716-15 15-15h427.551c8.284 0 15 6.716 15 15v21.455c0 8.284-6.716 15-15 15z" fill="#ecbba3"/><path d="m489.5 387.642h-31.181c8.284 0 15 6.716 15 15v21.455c0 8.284-6.716 15-15 15h31.181c8.284 0 15-6.716 15-15v-21.455c0-8.284-6.716-15-15-15z" fill="#e8ad8c"/><ellipse cx="150.311" cy="445.958" fill="#5a5a5a" rx="56.898" ry="58.28"/><ellipse cx="376.337" cy="445.958" fill="#5a5a5a" rx="56.898" ry="58.28"/><circle cx="151.728" cy="445.958" fill="#9c9c9c" r="26.299"/><circle cx="377.754" cy="445.958" fill="#9c9c9c" r="26.299"/><path d="m151.729 387.642c-5.554 0-10.92.793-16.008 2.243 24.42 6.959 42.307 29.419 42.307 56.072s-17.887 49.113-42.307 56.072c5.089 1.45 10.454 2.243 16.008 2.243 32.207 0 58.315-26.109 58.315-58.315s-26.109-58.315-58.315-58.315z" fill="#444"/><path d="m377.754 387.642c-5.554 0-10.92.793-16.008 2.243 24.42 6.959 42.307 29.419 42.307 56.072s-17.887 49.113-42.307 56.072c5.089 1.45 10.454 2.243 16.008 2.243 32.207 0 58.315-26.109 58.315-58.315s-26.108-58.315-58.315-58.315z" fill="#444"/><path d="m151.728 419.659c-4.058 0-7.903.925-11.339 2.573 8.841 4.242 14.961 13.282 14.961 23.726 0 10.443-6.12 19.484-14.961 23.726 3.435 1.648 7.281 2.573 11.339 2.573 14.501 0 26.299-11.798 26.299-26.299 0-14.502-11.797-26.299-26.299-26.299z" fill="#838383"/><path d="m377.754 419.659c-4.058 0-7.903.925-11.339 2.573 8.841 4.242 14.961 13.282 14.961 23.726 0 10.443-6.12 19.484-14.961 23.726 3.435 1.648 7.281 2.573 11.339 2.573 14.501 0 26.299-11.798 26.299-26.299 0-14.502-11.798-26.299-26.299-26.299z" fill="#838383"/><path d="m484.339 324.757h-45.414c-3.525 0-6.382 2.858-6.382 6.382v21.538c0 3.525 2.858 6.382 6.382 6.382h45.414z" fill="#ffe177"/><path d="m455.992 330.142v28.918h31.181v-34.303h-31.658c.31 1.751.477 3.55.477 5.385z" fill="#ffd15b"/></g><g><path d="m336.608 185.98h-60.971c-7.918 0-14.36 6.826-14.36 15.215v71.719c0 8.39 6.442 15.215 14.36 15.215h73.365c4.094 0 8-1.85 10.716-5.076 2.972-3.53 4.215-8.227 3.41-12.888l-12.395-71.718c-1.248-7.223-7.189-12.467-14.125-12.467zm11.738 87.149h-72.051c-.011-.061-.019-.132-.019-.215v-71.719c0-.083.007-.155.019-.215h59.653c.001.007.002.014.003.021l12.395 71.718c.029.167.021.304 0 .41z"/><path d="m105.264 185.98c-7.918 0-14.361 6.826-14.361 15.215v71.719c0 8.39 6.442 15.215 14.361 15.215h124.635c7.918 0 14.36-6.825 14.36-15.215v-71.719c0-8.39-6.442-15.215-14.36-15.215zm123.996 86.935c0 .083-.007.154-.019.215h-123.319c-.011-.061-.019-.132-.019-.215v-71.719c0-.083.008-.155.019-.215h123.318c.012.061.019.132.019.215z"/><path d="m151.729 479.757c18.637 0 33.799-15.162 33.799-33.799s-15.162-33.799-33.799-33.799-33.799 15.162-33.799 33.799c-.001 18.637 15.161 33.799 33.799 33.799zm0-52.598c10.366 0 18.799 8.433 18.799 18.799s-8.433 18.799-18.799 18.799-18.799-8.433-18.799-18.799c-.001-10.366 8.432-18.799 18.799-18.799z"/><path d="m377.754 412.159c-18.637 0-33.799 15.162-33.799 33.799s15.162 33.799 33.799 33.799 33.799-15.162 33.799-33.799-15.162-33.799-33.799-33.799zm0 52.598c-10.366 0-18.799-8.433-18.799-18.799s8.433-18.799 18.799-18.799 18.799 8.433 18.799 18.799-8.433 18.799-18.799 18.799z"/><path d="m141.221 75.279c17.57 0 31.864-11.292 31.864-25.173 0-13.88-14.294-25.172-31.864-25.172s-31.864 11.292-31.864 25.172c0 13.881 14.294 25.173 31.864 25.173zm0-35.345c9.498 0 16.864 5.468 16.864 10.172 0 4.705-7.367 10.173-16.864 10.173s-16.864-5.468-16.864-10.173c0-4.704 7.367-10.172 16.864-10.172z"/><path d="m494.673 380.749c0-42.114 0-22.403 0-64.78 0-19.766-14.829-36.178-34.493-38.176l-60.968-6.195c-1.619-8.647-3.301-17.541-4.923-26.022-.778-4.068-4.708-6.737-8.775-5.958-4.068.778-6.736 4.707-5.958 8.775 1.965 10.276 4.02 21.16 5.941 31.473.61 3.272 3.303 5.751 6.615 6.087l66.551 6.763c11.978 1.217 21.01 11.214 21.01 23.253v1.288h-40.749c-7.655 0-13.882 6.228-13.882 13.883v21.538c0 7.655 6.228 13.882 13.882 13.882h40.749v13.583c-4.396 0-321.181 0-327.945 0h-80.127v-177.307c0-17.932 14.588-32.521 32.52-32.521h239.603c11.755 0 22.001 8.363 24.362 19.885 1.506 7.351 3.121 15.382 4.8 23.869.805 4.064 4.756 6.705 8.813 5.901 4.063-.804 6.706-4.75 5.901-8.813-1.686-8.52-3.308-16.583-4.821-23.968-2.081-10.153-7.987-18.769-16.01-24.476 1.729-2.636 2.743-5.782 2.743-9.163v-51.799c0-2.976-.788-5.767-2.153-8.192 1.356-2.135 2.153-4.658 2.153-7.368v-40.941c0-7.607-6.188-13.795-13.795-13.795-171.4 0-159.862-.14-161.917.284-8.315-18.437-28.741-31.511-52.579-31.511-31.193 0-56.571 22.376-56.571 49.879 0 13.566 6.182 25.879 16.184 34.88h-12.659c-9.245 0-16.766 7.521-16.766 16.765v51.799c0 4.307 1.646 8.226 4.325 11.199-11.606 8.672-19.133 22.517-19.133 38.087v24.897c-2.052-.653-4.235-1.01-6.5-1.01h-28.601c-11.855 0-21.5 9.645-21.5 21.5v101.391c0 11.855 9.645 21.5 21.5 21.5h28.6c2.266 0 4.448-.357 6.5-1.01v10.685c-9.833 2.407-17.152 11.289-17.152 21.852v21.455c0 12.407 10.093 22.5 22.5 22.5h23.976c.12 12.428 3.707 24.486 10.406 34.908 2.241 3.484 6.881 4.492 10.365 2.253 3.484-2.24 4.493-6.88 2.253-10.365-5.257-8.177-8.035-17.665-8.036-27.437 0-27.943 22.728-50.815 50.815-50.815 27.874 0 50.815 22.645 50.815 50.815 0 28.02-22.796 50.815-50.815 50.815-6.875 0-13.541-1.347-19.811-4.004-3.813-1.618-8.216.165-9.832 3.979-1.616 3.813.165 8.215 3.979 9.832 8.131 3.446 16.766 5.193 25.663 5.193 36.076 0 65.453-29.18 65.799-65.176h94.427c.346 35.996 29.723 65.176 65.799 65.176s65.453-29.18 65.799-65.176h45.95c12.407 0 22.5-10.093 22.5-22.5v-21.455c0-10.624-7.406-19.547-17.327-21.891zm-178.113-334.295h37.953v38.532h-1.765-36.188zm0 53.532h36.188c.973 0 1.765.792 1.765 1.765v51.799c0 .973-.792 1.765-1.765 1.765h-9.024-27.164zm-24.707-53.532h9.708v38.532h-9.708zm0 53.532h9.708v55.33h-9.708zm-136.202 55.33h-9.708v-55.33h9.708zm42.141-108.862h79.06v38.532h-79.06zm-1.204 53.532h80.264v55.33h-106.201v-55.33zm-96.938-49.88c0-19.232 18.649-34.879 41.571-34.879s41.571 15.647 41.571 34.879c0 19.233-18.648 34.88-41.571 34.88s-41.571-15.647-41.571-34.88zm-13.241 51.645c0-.973.792-1.765 1.766-1.765h42.769v55.33h-26.823-15.946c-.974 0-1.766-.792-1.766-1.765zm-29.809 247.863c0 3.584-2.916 6.5-6.5 6.5h-28.6c-3.584 0-6.5-2.916-6.5-6.5v-101.39c0-3.584 2.916-6.5 6.5-6.5h28.6c3.584 0 6.5 2.916 6.5 6.5zm32.295 76.742c-.527 1.423-1.13 3.365-1.396 5.241h-25.55c-4.136 0-7.5-3.364-7.5-7.5v-21.455c0-4.136 3.364-7.5 7.5-7.5h2.152 45.793c-9.727 8.009-17.139 18.782-20.999 31.214zm351.147-74.796v-19.303h39.631v19.303zm-225.481 74.794c-3.86-12.431-11.272-23.203-20.998-31.212h142.356c-9.727 8.009-17.139 18.781-20.999 31.212-.523 1.561-1.079 3.378-1.396 5.243h-97.566c-.356-1.814-.821-3.562-1.397-5.243zm214.009 19.604c-.001 28.019-22.797 50.815-50.816 50.815-28.02 0-50.815-22.796-50.815-50.815 0-5.723.83-10.693 2.302-15.134 4.464-14.28 15.073-25.872 28.717-31.665 13.46-5.265 26.667-5.433 39.594.001 13.643 5.793 24.251 17.385 28.716 31.664.967 2.764 2.302 8.764 2.302 15.134zm68.43-21.861c0 4.135-3.364 7.5-7.5 7.5h-47.517c-.363-2.367-1.341-5.065-1.397-5.243-3.86-12.431-11.272-23.203-20.998-31.212h67.584 2.327c4.136 0 7.5 3.365 7.5 7.5v21.455z"/></g></g></svg>