<svg id="Layer_1" enable-background="new 0 0 512 512" height="512" viewBox="0 0 512 512" width="512" xmlns="http://www.w3.org/2000/svg"><g><path d="m256 11c-135.31 0-245 109.69-245 245 0 79.004 37.405 149.262 95.461 194.064l237.533 34.643c91.834-35.357 157.006-124.414 157.006-228.707 0-135.31-109.69-245-245-245z" fill="#e80054"/><path d="m104.85 448.829c41.634 32.681 94.116 52.171 151.15 52.171 31.735 0 62.06-6.034 89.891-17.017 3.398-140.286 32.097-149.638 32.097-307.509h-242.551c0 143.55-23.728 164.305-30.587 272.355z" fill="#f1e0c7"/><path d="m157.283 458.215c7.954-94.486 27.164-127.306 30.356-247.878.419-15.813 10.208-29.066 23.64-33.862h-75.842c0 143.551-23.728 164.305-30.588 272.355 17.804 13.976 37.597 25.529 58.876 34.187-4.821-7.059-7.196-15.852-6.442-24.802z" fill="#e8d0b1"/><path d="m212.426-1.816h86.41v274.322h-86.41z" fill="#f9efdc" transform="matrix(0 -1 1 0 120.287 390.977)"/><path d="m171.917 140.55c-12.673 0-22.946-10.273-22.946-22.947v-25.463h-30.5v86.411h274.322v-38h-220.876z" fill="#f1e0c7"/><g><path d="m315.155 240.962c-1.377 0-2.772-.35-4.05-1.089-17.113-9.894-36.669-15.124-56.553-15.124-19.885 0-39.441 5.23-56.554 15.124-3.874 2.239-8.834.915-11.075-2.961s-.915-8.835 2.961-11.076c19.576-11.318 41.939-17.301 64.669-17.301s45.092 5.983 64.668 17.301c3.876 2.241 5.202 7.2 2.96 11.076-1.504 2.597-4.227 4.05-7.026 4.05z" fill="#d6ba9d"/></g><g><path d="m317.324 294.151h-138.86c-4.477 0-8.106-3.629-8.106-8.106 0-4.478 3.629-8.106 8.106-8.106h138.86c4.477 0 8.106 3.629 8.106 8.106s-3.629 8.106-8.106 8.106z" fill="#d6ba9d"/></g><g><path d="m310.839 326.24h-138.86c-4.477 0-8.106-3.629-8.106-8.106s3.629-8.106 8.106-8.106h138.86c4.477 0 8.106 3.629 8.106 8.106s-3.63 8.106-8.106 8.106z" fill="#d6ba9d"/></g><g><path d="m306.515 358.328h-138.86c-4.477 0-8.106-3.629-8.106-8.106s3.629-8.106 8.106-8.106h138.86c4.477 0 8.106 3.629 8.106 8.106s-3.629 8.106-8.106 8.106z" fill="#d6ba9d"/></g><g><path d="m301.111 390.417h-138.86c-4.477 0-8.106-3.629-8.106-8.106s3.629-8.106 8.106-8.106h138.86c4.477 0 8.106 3.629 8.106 8.106s-3.629 8.106-8.106 8.106z" fill="#d6ba9d"/></g><g><path d="m296.788 422.505h-138.86c-4.477 0-8.106-3.629-8.106-8.106 0-4.478 3.629-8.106 8.106-8.106h138.86c4.477 0 8.106 3.629 8.106 8.106s-3.63 8.106-8.106 8.106z" fill="#d6ba9d"/></g><g><path d="m296.788 454.594h-138.86c-4.477 0-8.106-3.629-8.106-8.106 0-4.478 3.629-8.106 8.106-8.106h138.86c4.477 0 8.106 3.629 8.106 8.106s-3.63 8.106-8.106 8.106z" fill="#d6ba9d"/></g><path d="m473.888 148.528v-26.366c3.908-4.964 9.958-8.162 16.766-8.162 11.789 0 21.345 9.557 21.345 21.346s-9.557 21.345-21.345 21.345c-6.808-.001-12.857-3.199-16.766-8.163z" fill="#ffdd40"/><path d="m473.888 122.162.068.29c1.985 8.481 1.985 17.305 0 25.786l-.068.29-35.319 7.391v-41.148z" fill="#ffb332"/><path d="m473.888 122.162.068.29c1.985 8.481 1.985 17.305 0 25.786l-.068.29-35.319 7.391v-41.148z" fill="#ffb332"/><path d="m460.237 137.345c-6.6 0-12-5.4-12-12v-.467c0-2.844 1.006-5.461 2.676-7.524l-12.342-2.583v41.148l35.319-7.391.068-.29c.84-3.587 1.302-7.235 1.432-10.893z" fill="#ff9100"/><g><path d="m414.116 102.427h13.138c6.789 0 12.344 5.555 12.344 12.344v41.148c0 6.789-5.555 12.344-12.344 12.344h-13.138z" fill="#ffc839"/></g><path d="m426.857 139.544c-7.037 0-12.741-5.704-12.741-12.741v41.46h13.138c6.789 0 12.345-5.555 12.345-12.344v-29.116c0 7.037-5.705 12.741-12.742 12.741z" fill="#ffb332"/><path d="m416.173 100.055v70.58c0 11.38-9.226 20.606-20.606 20.606-3.236 0-5.86-2.624-5.86-5.86v-100.072c0-3.236 2.624-5.86 5.86-5.86 11.38 0 20.606 9.226 20.606 20.606z" fill="#ffdd40"/><path d="m416.173 100.055v70.58c0 11.38-9.226 20.606-20.606 20.606-3.236 0-5.86-2.624-5.86-5.86v-100.072c0-3.236 2.624-5.86 5.86-5.86 11.38 0 20.606 9.226 20.606 20.606z" fill="#ffdd40"/><ellipse cx="496.653" cy="131.461" fill="#fcea9d" rx="8.083" ry="8.083" transform="matrix(.707 -.707 .707 .707 52.51 389.691)"/><path d="m389.707 140.55v44.831c0 3.236 2.624 5.86 5.86 5.86 11.38 0 20.606-9.226 20.606-20.606v-36.899s-10.413 17.362-26.466 6.814z" fill="#ffc839"/><path d="m37.882 148.528v-26.366c-3.885-4.964-9.898-8.162-16.665-8.162-11.718-.001-21.217 9.556-21.217 21.345s9.499 21.345 21.217 21.345c6.767 0 12.78-3.198 16.665-8.162z" fill="#ffdd40"/><path d="m37.882 122.162-.067.29c-1.973 8.481-1.973 17.305 0 25.786l.067.29 35.106 7.391v-41.148z" fill="#ffb332"/><path d="m37.882 122.162-.067.29c-1.973 8.481-1.973 17.305 0 25.786l.067.29 35.106 7.391v-41.148z" fill="#ffb332"/><path d="m51.452 137.345c6.56 0 11.928-5.4 11.928-12v-.467c0-2.844-1-5.461-2.659-7.524l12.268-2.583v41.148l-35.106-7.391-.067-.29c-.835-3.587-1.295-7.235-1.423-10.893z" fill="#ff9100"/><g><path d="m97.295 102.427h-13.059c-6.749 0-12.27 5.555-12.27 12.344v41.148c0 6.789 5.521 12.344 12.27 12.344h13.059z" fill="#ffc839"/></g><path d="m84.63 139.544c6.994 0 12.665-5.704 12.665-12.741v41.46h-13.059c-6.749 0-12.27-5.555-12.27-12.344v-29.116c0 7.037 5.67 12.741 12.664 12.741z" fill="#ffb332"/><path d="m95.25 100.055v70.58c0 11.38 9.17 20.606 20.482 20.606 3.217 0 5.825-2.624 5.825-5.86v-100.072c0-3.236-2.608-5.86-5.825-5.86-11.312 0-20.482 9.226-20.482 20.606z" fill="#ffdd40"/><path d="m95.25 100.055v70.58c0 11.38 9.17 20.606 20.482 20.606 3.217 0 5.825-2.624 5.825-5.86v-100.072c0-3.236-2.608-5.86-5.825-5.86-11.312 0-20.482 9.226-20.482 20.606z" fill="#ffdd40"/><path d="m7.22 131.461c0 4.464 3.597 8.083 8.035 8.083 4.437 0 8.035-3.619 8.035-8.083s-3.597-8.083-8.035-8.083c-4.438-.001-8.035 3.618-8.035 8.083z" fill="#fcea9d"/><path d="m121.557 140.55v44.831c0 3.236-2.608 5.86-5.825 5.86-11.312 0-20.482-9.226-20.482-20.606v-36.899s10.35 17.362 26.307 6.814z" fill="#ffc839"/><path d="m501 256c0-23.08-3.197-45.412-9.162-66.583-19.767 1.302-65.467 9.646-75.665 58.436-12.262 58.666-36.637 173.812 12.298 182.129 44.784-44.391 72.529-105.941 72.529-173.982z" fill="#ff4155"/></g></svg>